<svg width="100%" height="100%" viewBox="-3 0 80 80" fill="none" xmlns="http://www.w3.org/2000/svg">
<path d="M0 25C0 11.1929 11.1929 0 25 0V0C38.8071 0 50 11.1929 50 25V25C50 38.8071 38.8071 50 25 50V50C11.1929 50 0 38.8071 0 25V25Z" fill="#C0C4CC" transform="translate(13, 20)"/>
<path d="M28.648 25.528C31.3455 26.3166 33.7148 27.9582 35.4008 30.2067C37.0868 32.4552 37.9988 35.1896 38 38H12C12.0006 35.1894 12.9123 32.4548 14.5984 30.2061C16.2845 27.9575 18.6542 26.3161 21.352 25.528L25 31L28.648 25.528ZM31.5 18.5C31.5 20.2239 30.8152 21.8772 29.5962 23.0962C28.3772 24.3152 26.7239 25 25 25C23.2761 25 21.6228 24.3152 20.4038 23.0962C19.1848 21.8772 18.5 20.2239 18.5 18.5C18.5 16.7761 19.1848 15.1228 20.4038 13.9038C21.6228 12.6848 23.2761 12 25 12C26.7239 12 28.3772 12.6848 29.5962 13.9038C30.8152 15.1228 31.5 16.7761 31.5 18.5V18.5Z" fill="white" transform="translate(13, 20)" />
</svg>
