<svg width="22" height="20" viewBox="0 0 22 20" fill="none" xmlns="http://www.w3.org/2000/svg">
<path d="M11 13.9966V18.9966M11 13.9966L17 18.9966M11 13.9966L5 18.9966M20 0.996582V9.19658C20 10.8767 20 11.7168 19.673 12.3586C19.3854 12.923 18.9265 13.382 18.362 13.6696C17.7202 13.9966 16.8802 13.9966 15.2 13.9966H6.8C5.11984 13.9966 4.27976 13.9966 3.63803 13.6696C3.07354 13.382 2.6146 12.923 2.32698 12.3586C2 11.7168 2 10.8767 2 9.19658V0.996582M7 6.99658V9.99658M11 4.99658V9.99658M15 8.99658V9.99658M21 0.996582H1" stroke="black" stroke-width="2" stroke-linecap="round" stroke-linejoin="round"/>
</svg>
