<svg width="24" height="25" viewBox="0 0 24 25" fill="none" xmlns="http://www.w3.org/2000/svg">
<path d="M9 7.36377H4.6C4.03995 7.36377 3.75992 7.36377 3.54601 7.47276C3.35785 7.56864 3.20487 7.72162 3.10899 7.90978C3 8.12369 3 8.40372 3 8.96377V19.7638C3 20.3238 3 20.6038 3.10899 20.8178C3.20487 21.0059 3.35785 21.1589 3.54601 21.2548C3.75992 21.3638 4.03995 21.3638 4.6 21.3638H9M9 21.3638H15M9 21.3638L9 4.96377C9 4.40372 9 4.12369 9.10899 3.90978C9.20487 3.72162 9.35785 3.56864 9.54601 3.47276C9.75992 3.36377 10.0399 3.36377 10.6 3.36377L13.4 3.36377C13.9601 3.36377 14.2401 3.36377 14.454 3.47276C14.6422 3.56864 14.7951 3.72162 14.891 3.90978C15 4.12369 15 4.40372 15 4.96377V21.3638M15 11.3638H19.4C19.9601 11.3638 20.2401 11.3638 20.454 11.4728C20.6422 11.5686 20.7951 11.7216 20.891 11.9098C21 12.1237 21 12.4037 21 12.9638V19.7638C21 20.3238 21 20.6038 20.891 20.8178C20.7951 21.0059 20.6422 21.1589 20.454 21.2548C20.2401 21.3638 19.9601 21.3638 19.4 21.3638H15" stroke="#94A3B8" stroke-width="2" stroke-linecap="round" stroke-linejoin="round"/>
</svg>
