<svg width="20" height="20" viewBox="0 0 24 24" fill="none" xmlns="http://www.w3.org/2000/svg">
<path d="M11 0.4375C8.91094 0.4375 6.86879 1.05698 5.13179 2.2176C3.3948 3.37822 2.04098 5.02786 1.24153 6.95791C0.442077 8.88795 0.232904 11.0117 0.64046 13.0606C1.04802 15.1096 2.054 16.9916 3.53119 18.4688C5.00838 19.946 6.89044 20.952 8.93936 21.3595C10.9883 21.7671 13.1121 21.5579 15.0421 20.7585C16.9721 19.959 18.6218 18.6052 19.7824 16.8682C20.943 15.1312 21.5625 13.0891 21.5625 11C21.5595 8.19956 20.4458 5.51466 18.4656 3.53445C16.4853 1.55424 13.8004 0.440457 11 0.4375ZM11 19.9375C9.23233 19.9375 7.50436 19.4133 6.0346 18.4313C4.56483 17.4492 3.41929 16.0533 2.74283 14.4202C2.06637 12.7871 1.88938 10.9901 2.23424 9.25638C2.57909 7.52267 3.43031 5.93016 4.68024 4.68023C5.93017 3.4303 7.52268 2.57909 9.25638 2.23423C10.9901 1.88938 12.7871 2.06637 14.4202 2.74283C16.0534 3.41928 17.4492 4.56483 18.4313 6.03459C19.4133 7.50435 19.9375 9.23233 19.9375 11C19.9348 13.3695 18.9923 15.6413 17.3168 17.3168C15.6413 18.9923 13.3696 19.9348 11 19.9375ZM15.6373 8.80016C15.7129 8.87561 15.7728 8.96522 15.8137 9.06386C15.8546 9.1625 15.8756 9.26822 15.8756 9.375C15.8756 9.48177 15.8546 9.5875 15.8137 9.68614C15.7728 9.78477 15.7129 9.87438 15.6373 9.94984L11.5748 14.0123C11.4994 14.0879 11.4098 14.1478 11.3111 14.1887C11.2125 14.2296 11.1068 14.2506 11 14.2506C10.8932 14.2506 10.7875 14.2296 10.6889 14.1887C10.5902 14.1478 10.5006 14.0879 10.4252 14.0123L6.36266 9.94984C6.2102 9.79739 6.12455 9.59061 6.12455 9.375C6.12455 9.15939 6.2102 8.95261 6.36266 8.80016C6.51512 8.6477 6.7219 8.56205 6.9375 8.56205C7.15311 8.56205 7.35989 8.6477 7.51235 8.80016L11 12.2888L14.4877 8.80016C14.5631 8.72461 14.6527 8.66468 14.7514 8.62379C14.85 8.58291 14.9557 8.56186 15.0625 8.56186C15.1693 8.56186 15.275 8.58291 15.3736 8.62379C15.4723 8.66468 15.5619 8.72461 15.6373 8.80016Z" fill="#757575"/>
</svg>
