<svg width="27" height="27" viewBox="0 0 27 27" fill="none" xmlns="http://www.w3.org/2000/svg">
<path d="M15.4119 8.93982C14.6963 9.44994 13.8207 9.75 12.875 9.75C10.4588 9.75 8.5 7.79125 8.5 5.375C8.5 2.95875 10.4588 1 12.875 1C14.4412 1 15.8152 1.82302 16.5881 3.06018M6 23.6089H9.26286C9.68829 23.6089 10.1111 23.6596 10.5235 23.7608L13.9711 24.5986C14.7192 24.7808 15.4985 24.7986 16.2543 24.6518L20.0662 23.9101C21.0732 23.714 21.9995 23.2318 22.7254 22.5256L25.4224 19.9021C26.1925 19.1542 26.1925 17.9405 25.4224 17.1913C24.7289 16.5168 23.6309 16.4409 22.8464 17.0129L19.7032 19.3061C19.2531 19.6351 18.7054 19.8123 18.1421 19.8123H15.1069L17.0388 19.8122C18.1278 19.8122 19.0098 18.9542 19.0098 17.8949V17.5114C19.0098 16.6319 18.3945 15.865 17.5176 15.6523L14.5357 14.9272C14.0505 14.8095 13.5535 14.75 13.0539 14.75C11.8479 14.75 9.66487 15.7485 9.66487 15.7485L6 17.2811M23.5 6.625C23.5 9.04125 21.5412 11 19.125 11C16.7088 11 14.75 9.04125 14.75 6.625C14.75 4.20875 16.7088 2.25 19.125 2.25C21.5412 2.25 23.5 4.20875 23.5 6.625ZM1 16.75L1 24C1 24.7001 1 25.0501 1.13624 25.3175C1.25608 25.5527 1.44731 25.7439 1.68251 25.8638C1.9499 26 2.29993 26 3 26H4C4.70007 26 5.0501 26 5.31749 25.8638C5.55269 25.7439 5.74392 25.5527 5.86376 25.3175C6 25.0501 6 24.7001 6 24V16.75C6 16.0499 6 15.6999 5.86376 15.4325C5.74392 15.1973 5.55269 15.0061 5.31749 14.8862C5.0501 14.75 4.70007 14.75 4 14.75L3 14.75C2.29993 14.75 1.9499 14.75 1.68251 14.8862C1.44731 15.0061 1.25608 15.1973 1.13624 15.4325C1 15.6999 1 16.0499 1 16.75Z" stroke="#606266" stroke-width="2" stroke-linecap="round" stroke-linejoin="round"/>
</svg>
