<svg width="100%" height="100%" viewBox="0 -8 40 40" fill="none" xmlns="http://www.w3.org/2000/svg">
<path d="M13.6456 14.3109C13.6456 14.5212 13.562 14.7228 13.4134 14.8715C13.2647 15.0202 13.063 15.1037 12.8528 15.1037H6.5104C6.30013 15.1037 6.09848 15.0202 5.94981 14.8715C5.80113 14.7228 5.7176 14.5212 5.7176 14.3109C5.7176 14.1006 5.80113 13.899 5.94981 13.7503C6.09848 13.6016 6.30013 13.5181 6.5104 13.5181H12.8528C13.063 13.5181 13.2647 13.6016 13.4134 13.7503C13.562 13.899 13.6456 14.1006 13.6456 14.3109ZM12.8528 10.3469H6.5104C6.30013 10.3469 6.09848 10.4304 5.94981 10.5791C5.80113 10.7278 5.7176 10.9295 5.7176 11.1397C5.7176 11.35 5.80113 11.5516 5.94981 11.7003C6.09848 11.849 6.30013 11.9325 6.5104 11.9325H12.8528C13.063 11.9325 13.2647 11.849 13.4134 11.7003C13.562 11.5516 13.6456 11.35 13.6456 11.1397C13.6456 10.9295 13.562 10.7278 13.4134 10.5791C13.2647 10.4304 13.063 10.3469 12.8528 10.3469ZM18.4024 4.00454V20.6533C18.4024 21.0738 18.2353 21.4771 17.938 21.7745C17.6406 22.0718 17.2373 22.2389 16.8168 22.2389H2.54641C2.12588 22.2389 1.72258 22.0718 1.42523 21.7745C1.12787 21.4771 0.960815 21.0738 0.960815 20.6533V4.00454C0.960815 3.58402 1.12787 3.18071 1.42523 2.88336C1.72258 2.586 2.12588 2.41895 2.54641 2.41895H6.13977C6.58522 1.9202 7.13099 1.52116 7.74135 1.24794C8.3517 0.974727 9.01287 0.833496 9.68159 0.833496C10.3503 0.833496 11.0115 0.974727 11.6218 1.24794C12.2322 1.52116 12.778 1.9202 13.2234 2.41895H16.8168C17.2373 2.41895 17.6406 2.586 17.938 2.88336C18.2353 3.18071 18.4024 3.58402 18.4024 4.00454ZM6.5104 5.59014H12.8528C12.8528 4.74909 12.5187 3.94248 11.924 3.34777C11.3292 2.75305 10.5226 2.41895 9.68159 2.41895C8.84054 2.41895 8.03393 2.75305 7.43922 3.34777C6.8445 3.94248 6.5104 4.74909 6.5104 5.59014ZM16.8168 4.00454H14.1658C14.3462 4.51373 14.4384 5.04995 14.4384 5.59014V6.38293C14.4384 6.5932 14.3548 6.79485 14.2062 6.94353C14.0575 7.09221 13.8558 7.17573 13.6456 7.17573H5.7176C5.50734 7.17573 5.30569 7.09221 5.15701 6.94353C5.00833 6.79485 4.9248 6.5932 4.9248 6.38293V5.59014C4.92482 5.04995 5.01698 4.51373 5.19733 4.00454H2.54641V20.6533H16.8168V4.00454Z" fill="#6F6F6F"/>
</svg>
