<?xml version="1.0" standalone="no"?>
<!DOCTYPE svg PUBLIC "-//W3C//DTD SVG 20010904//EN"
 "http://www.w3.org/TR/2001/REC-SVG-20010904/DTD/svg10.dtd">
<svg version="1.0" xmlns="http://www.w3.org/2000/svg"
 width="512.000000pt" height="512.000000pt" viewBox="0 0 512.000000 512.000000"
 preserveAspectRatio="xMidYMid meet">

<g transform="translate(0.000000,512.000000) scale(0.100000,-0.100000)"
fill="#000000" stroke="none">
<path d="M560 2560 l0 -2320 1960 0 1960 0 0 1864 0 1863 -427 457 -428 456
-1532 0 -1533 0 0 -2320z m2880 1600 l0 -480 400 0 400 0 0 -1600 0 -1600
-1720 0 -1720 0 0 2080 0 2080 1320 0 1320 0 0 -480z m462 73 c118 -126 231
-247 252 -270 l38 -43 -256 0 -256 0 0 270 c0 149 2 270 4 270 2 0 100 -102
218 -227z"/>
<path d="M1885 3810 l-210 -210 -120 120 -120 120 -85 -85 -85 -85 205 -205
205 -205 300 300 300 300 -80 80 c-44 44 -84 80 -90 80 -6 0 -105 -94 -220
-210z"/>
<path d="M2640 3480 l0 -120 280 0 280 0 0 120 0 120 -280 0 -280 0 0 -120z"/>
<path d="M1895 2700 c-115 -115 -214 -210 -220 -210 -5 0 -63 53 -127 117
l-118 118 -80 -80 c-44 -44 -80 -84 -80 -90 0 -13 392 -405 405 -405 5 0 144
134 307 297 l298 298 -82 82 c-46 46 -85 83 -88 83 -3 0 -100 -94 -215 -210z"/>
<path d="M2640 2760 l0 -120 600 0 600 0 0 120 0 120 -600 0 -600 0 0 -120z"/>
<path d="M2640 2120 l0 -120 600 0 600 0 0 120 0 120 -600 0 -600 0 0 -120z"/>
<path d="M1893 1558 l-213 -213 -123 123 -122 122 -85 -85 -85 -85 208 -208
207 -207 295 295 c162 162 295 300 295 305 0 10 -151 165 -160 165 -3 0 -101
-96 -217 -212z"/>
<path d="M2640 1400 l0 -120 600 0 600 0 0 120 0 120 -600 0 -600 0 0 -120z"/>
</g>
</svg>
