<svg width="100%" height="100%" viewBox="0 -10 100 100" fill="none" xmlns="http://www.w3.org/2000/svg">
<path d="M51.2261 30.5851L51.2273 30.5862C51.3186 30.6774 51.391 30.7858 51.4405 30.905C51.4899 31.0242 51.5153 31.152 51.5153 31.2811C51.5153 31.4102 51.4899 31.538 51.4405 31.6572C51.391 31.7765 51.3186 31.8848 51.2273 31.976L51.2267 31.9766L34.383 48.8203L34.3824 48.8209C34.2912 48.9122 34.1829 48.9847 34.0636 49.0341C33.9444 49.0835 33.8166 49.109 33.6875 49.109C33.5584 49.109 33.4306 49.0835 33.3114 49.0341C33.1921 48.9847 33.0838 48.9122 32.9926 48.8209L32.992 48.8203L25.7733 41.6016C25.5888 41.4171 25.4852 41.167 25.4852 40.9061C25.4852 40.6453 25.5888 40.3951 25.7733 40.2107C25.9577 40.0262 26.2079 39.9226 26.4688 39.9226C26.7295 39.9226 26.9795 40.0261 27.1639 40.2104C27.164 40.2104 27.164 40.2105 27.164 40.2105C27.1641 40.2105 27.1641 40.2106 27.1642 40.2107L32.6803 45.7297L33.6873 46.7373L34.6946 45.7299L49.8359 30.5856L49.8363 30.5851C49.9276 30.4938 50.0359 30.4213 50.1551 30.3719C50.2744 30.3225 50.4022 30.297 50.5312 30.297C50.6603 30.297 50.7881 30.3225 50.9074 30.3719C51.0266 30.4213 51.1349 30.4938 51.2261 30.5851ZM62.5625 63.9864H63.9866V62.5624V14.4374V13.0133H62.5625H14.4375H13.0134V14.4374V62.5624V63.9864H14.4375H62.5625ZM65.9509 14.4374V62.5624C65.9509 63.461 65.5939 64.3229 64.9585 64.9584C64.323 65.5938 63.4612 65.9508 62.5625 65.9508H14.4375C13.5388 65.9508 12.677 65.5938 12.0415 64.9584C11.4061 64.3229 11.0491 63.461 11.0491 62.5624V14.4374C11.0491 13.5387 11.4061 12.6768 12.0415 12.0414C12.677 11.4059 13.5388 11.0489 14.4375 11.0489H62.5625C63.4612 11.0489 64.323 11.4059 64.9585 12.0414C65.5939 12.6768 65.9509 13.5387 65.9509 14.4374Z" fill="#343330" stroke="#C0C4CC" stroke-width="2.84813" transform="translate(12,0)"/>
</svg>
