<svg width="100%" height="100%" viewBox="0 0 50 50" fill="none" xmlns="http://www.w3.org/2000/svg">
<path d="M18 23.6667V32M18 23.6667L28 32M18 23.6667L8.00004 32M33 2V15.6667C33 18.4669 33 19.8671 32.4551 20.9366C31.9757 21.8774 31.2108 22.6423 30.27 23.1217C29.2004 23.6667 27.8003 23.6667 25 23.6667H11C8.19978 23.6667 6.79965 23.6667 5.73009 23.1217C4.78928 22.6423 4.02437 21.8774 3.54501 20.9366C3.00004 19.8671 3.00004 18.4669 3.00004 15.6667V2M11.3334 12V17M18 8.66667V17M24.6667 15.3333V17M34.6667 2H1.33337" stroke="#C0C4CC" stroke-width="2.16667" stroke-linecap="round" stroke-linejoin="round" transform="translate(7.5, 9)"/>
</svg>
